# xmcd
#
# Track frame offsets:
#	150
#	11329
#	27303
#	51162
#	63599
#	74522
#	91124
#	103353
#	115386
#	127848
#	140793
#	155135
#	168650
#	183649
#	197277
#	210396
#	220778
#	232385
#	244371
#	258208
#	275612
#	287947
#	301155
#
# Disc length: 4182 seconds
#
# Revision: 1
# Processed by: cddbd v1.5.1PL0 Copyright (c) Steve Scherf et al.
# Submitted via: EasyCDDAExtractor 6.0.0.1
#
DISCID=64105417
DTITLE=Various Artist - Las 101 canciones mas soul de la galaxia cd1
DYEAR=2002
DGENRE=Soul
TTITLE0=varios - Ain´T No Mountain High Enough - Marvin Gaye and Tammi Terrell
TTITLE1=varios - I Say A Little Prayer - Aretha Franklin
TTITLE2=varios - Sex Machine - James Brown
TTITLE3=varios -  (Sittin´On)The Dock Of The Bay - Otis Redding
TTITLE4=varios - Land Of 1.000 Dances - Wilson Pickett
TTITLE5=varios - Come Rain Or Come Shine - Ray Charles
TTITLE6=varios - My Girl - The Temptations
TTITLE7=varios - Dancing In The Street - Martha Reeves and The Vandellas
TTITLE8=varios - Every Body Needs Somebody To Love - Solomon Burke
TTITLE9=varios - When A Man Loves A Woman - Percy Sledge
TTITLE10=varios - Patches - Clarence Carter
TTITLE11=varios - Stand By Me - B.B. King
TTITLE12=varios - La La Means I Love You - The Dolfonics
TTITLE13=varios - On Broadway - The Drifters
TTITLE14=varios - B-A-B-Y - Carla Thomas
TTITLE15=varios - Sweet Soul Music - Arthur Conley
TTITLE16=varios - Walkin´ The Dog - Rufus Thomas
TTITLE17=varios - Soul Man - Sam and Dave
TTITLE18=varios - Knock On Wood - Eddie Floyd
TTITLE19=varios - Rainy Night In Georgia - Brook Benton
TTITLE20=varios - Working In The Coalmine - Lee Dorsey
TTITLE21=varios - What Becomes Of The Broken Hearted - Jimmy Ruffin
TTITLE22=My Guy - Mary Wells
EXTD=
EXTT0=
EXTT1=
EXTT2=
EXTT3=
EXTT4=
EXTT5=
EXTT6=
EXTT7=
EXTT8=
EXTT9=
EXTT10=
EXTT11=
EXTT12=
EXTT13=
EXTT14=
EXTT15=
EXTT16=
EXTT17=
EXTT18=
EXTT19=
EXTT20=
EXTT21=
EXTT22=
PLAYORDER=
